<svg xmlns="http://www.w3.org/2000/svg" viewBox="0 0 64 64">
  <defs>
    <linearGradient id="orbit" x1="8" y1="8" x2="56" y2="56" gradientUnits="userSpaceOnUse">
      <stop stop-color="#00d4ff"/>
      <stop offset=".55" stop-color="#6d5dfc"/>
      <stop offset="1" stop-color="#c35cff"/>
    </linearGradient>
    <radialGradient id="core" cx="50%" cy="42%" r="60%">
      <stop stop-color="#182a58"/>
      <stop offset="1" stop-color="#080b18"/>
    </radialGradient>
  </defs>
  <rect width="64" height="64" rx="16" fill="#070a14"/>
  <rect x="9" y="9" width="46" height="46" rx="13" fill="url(#core)" stroke="url(#orbit)" stroke-width="2.5"/>
  <path d="M20 23h7.5c5 0 8 2.2 8 6.1 0 2.1-1.1 3.8-3 4.7 2.7.8 4.2 2.7 4.2 5.4 0 4.3-3.4 6.8-9.1 6.8H20V23Zm6.9 9.1c2.4 0 3.8-.9 3.8-2.6 0-1.7-1.3-2.5-3.8-2.5h-2.3v5.1h2.3Zm.7 9.8c2.8 0 4.2-.9 4.2-2.8 0-1.9-1.4-2.9-4.2-2.9h-3v5.7h3Z" fill="#f8fbff"/>
  <path d="M14 18h5M45 18h5M14 46h5M45 46h5M18 14v5M46 14v5M18 45v5M46 45v5" stroke="url(#orbit)" stroke-width="2" stroke-linecap="round"/>
  <circle cx="14" cy="18" r="2" fill="#00d4ff"/><circle cx="50" cy="18" r="2" fill="#8d6bff"/>
  <circle cx="14" cy="46" r="2" fill="#00d4ff"/><circle cx="50" cy="46" r="2" fill="#c35cff"/>
</svg>
